<svg xmlns:xlink="http://www.w3.org/1999/xlink" xmlns="http://www.w3.org/2000/svg" _ngcontent-xat-c19="" viewBox="30 144 24.213 24.213" class="Path_79" width="24.213"  height="24.213" ><path _ngcontent-xat-c19="" id="Path_79" d="M 33.074951171875 144 L 37.16695785522461 144 C 38.87397384643555 144 40.24201202392578 145.3922271728516 40.24201202392578 147.1004791259766 L 40.24201202392578 151.2275848388672 C 40.24201202392578 152.9467163085938 38.87397384643555 154.3268585205078 37.16695785522461 154.3268585205078 L 33.074951171875 154.3268585205078 C 31.38004875183105 154.3268585205078 29.99990272521973 152.9467163085938 29.99990272521973 151.2275848388672 L 29.99990272521973 147.1004791259766 C 29.99990272521973 145.3922271728516 31.38004875183105 144 33.074951171875 144 Z M 33.074951171875 157.8861846923828 L 37.16695785522461 157.8861846923828 C 38.87397384643555 157.8861846923828 40.24201202392578 159.2675018310547 40.24201202392578 160.9866638183594 L 40.24201202392578 165.11376953125 C 40.24201202392578 166.8207855224609 38.87397384643555 168.2130279541016 37.16695785522461 168.2130279541016 L 33.074951171875 168.2130279541016 C 31.38004875183105 168.2130279541016 29.99990272521973 166.8207855224609 29.99990272521973 165.11376953125 L 29.99990272521973 160.9866638183594 C 29.99990272521973 159.2675018310547 31.38004875183105 157.8861846923828 33.074951171875 157.8861846923828 Z M 51.13800430297852 144 L 47.04600143432617 144 C 45.3389778137207 144 43.97094345092773 145.3922271728516 43.97094345092773 147.1004791259766 L 43.97094345092773 151.2275848388672 C 43.97094345092773 152.9467163085938 45.3389778137207 154.3268585205078 47.04600143432617 154.3268585205078 L 51.13800430297852 154.3268585205078 C 52.83291244506836 154.3268585205078 54.21305465698242 152.9467163085938 54.21305465698242 151.2275848388672 L 54.21305465698242 147.1004791259766 C 54.21305465698242 145.3922271728516 52.83291244506836 144 51.13800430297852 144 Z M 47.04600143432617 157.8861846923828 L 51.13800430297852 157.8861846923828 C 52.83291244506836 157.8861846923828 54.21305465698242 159.2675018310547 54.21305465698242 160.9866638183594 L 54.21305465698242 165.11376953125 C 54.21305465698242 166.8207855224609 52.83291244506836 168.2130279541016 51.13800430297852 168.2130279541016 L 47.04600143432617 168.2130279541016 C 45.3389778137207 168.2130279541016 43.97094345092773 166.8207855224609 43.97094345092773 165.11376953125 L 43.97094345092773 160.9866638183594 C 43.97094345092773 159.2675018310547 45.3389778137207 157.8861846923828 47.04600143432617 157.8861846923828 Z" fill="#2588DF"></path></svg>