<svg xmlns:xlink="http://www.w3.org/1999/xlink" xmlns="http://www.w3.org/2000/svg" _ngcontent-xat-c19="" viewBox="0 2.25 20.466 17.908" class="Icon_awesome-list-alt" width="20.466"  height="17.908" ><path _ngcontent-xat-c19="" id="Icon_awesome-list-alt" d="M 18.5475902557373 20.15801811218262 L 1.918716311454773 20.15801811218262 C 0.8590253591537476 20.15801811218262 0 19.29899406433105 0 18.23930358886719 L 0 4.168716430664062 C 0 3.109025239944458 0.8590253591537476 2.249999761581421 1.918716311454773 2.249999761581421 L 18.5475902557373 2.249999761581421 C 19.60728073120117 2.249999761581421 20.46630668640137 3.109025239944458 20.46630668640137 4.168716430664062 L 20.46630668640137 18.23930358886719 C 20.46630668640137 19.29899406433105 19.60728073120117 20.15801811218262 18.5475902557373 20.15801811218262 Z M 5.116576671600342 5.767646789550781 C 4.233527660369873 5.767646789550781 3.517646551132202 6.483528137207031 3.517646551132202 7.3665771484375 C 3.517646551132202 8.249626159667969 4.233527660369873 8.965506553649902 5.116576671600342 8.965506553649902 C 5.999625682830811 8.965506553649902 6.715507030487061 8.249626159667969 6.715507030487061 7.3665771484375 C 6.715507030487061 6.483528137207031 5.999625682830811 5.767646789550781 5.116576671600342 5.767646789550781 Z M 5.116576671600342 9.605079650878906 C 4.233527660369873 9.605079650878906 3.517646551132202 10.32095909118652 3.517646551132202 11.20400905609131 C 3.517646551132202 12.08705902099609 4.233527660369873 12.80293941497803 5.116576671600342 12.80293941497803 C 5.999625682830811 12.80293941497803 6.715507030487061 12.08705902099609 6.715507030487061 11.20400905609131 C 6.715507030487061 10.32095909118652 5.999625682830811 9.605079650878906 5.116576671600342 9.605079650878906 Z M 5.116576671600342 13.44251155853271 C 4.233527660369873 13.44251155853271 3.517646551132202 14.15839290618896 3.517646551132202 15.04144287109375 C 3.517646551132202 15.92449283599854 4.233527660369873 16.64037322998047 5.116576671600342 16.64037322998047 C 5.999625682830811 16.64037322998047 6.715507030487061 15.92449283599854 6.715507030487061 15.04144287109375 C 6.715507030487061 14.15839290618896 5.999625682830811 13.44251155853271 5.116576671600342 13.44251155853271 Z M 16.62887573242188 8.006148338317871 L 16.62887573242188 6.727005004882812 C 16.62887573242188 6.46210241317749 16.41409873962402 6.247326374053955 16.14919662475586 6.247326374053955 L 8.154544830322266 6.247326374053955 C 7.889641761779785 6.247326374053955 7.674865245819092 6.46210241317749 7.674865245819092 6.727005004882812 L 7.674865245819092 8.006148338317871 C 7.674865245819092 8.271051406860352 7.889641761779785 8.485828399658203 8.154544830322266 8.485828399658203 L 16.14919662475586 8.485828399658203 C 16.41409873962402 8.485828399658203 16.62887573242188 8.271051406860352 16.62887573242188 8.006148338317871 Z M 16.62887573242188 11.84358215332031 L 16.62887573242188 10.56443786621094 C 16.62887573242188 10.29953479766846 16.41409873962402 10.08475780487061 16.14919662475586 10.08475780487061 L 8.154544830322266 10.08475780487061 C 7.889641761779785 10.08475780487061 7.674865245819092 10.29953479766846 7.674865245819092 10.56443786621094 L 7.674865245819092 11.84358215332031 C 7.674865245819092 12.10848426818848 7.889641761779785 12.3232593536377 8.154544830322266 12.3232593536377 L 16.14919662475586 12.3232593536377 C 16.41409873962402 12.3232593536377 16.62887573242188 12.10848426818848 16.62887573242188 11.84358215332031 Z M 16.62887573242188 15.68101406097412 L 16.62887573242188 14.40187072753906 C 16.62887573242188 14.13696670532227 16.41409873962402 13.92219161987305 16.14919662475586 13.92219161987305 L 8.154544830322266 13.92219161987305 C 7.889641761779785 13.92219161987305 7.674865245819092 14.13696670532227 7.674865245819092 14.40187072753906 L 7.674865245819092 15.68101406097412 C 7.674865245819092 15.94591808319092 7.889641761779785 16.16069412231445 8.154544830322266 16.16069412231445 L 16.14919662475586 16.16069412231445 C 16.41409873962402 16.16069412231445 16.62887573242188 15.94591808319092 16.62887573242188 15.68101406097412 Z" fill="#A6B2C8"></path></svg>