<svg xmlns:xlink="http://www.w3.org/1999/xlink" xmlns="http://www.w3.org/2000/svg" _ngcontent-xat-c19="" viewBox="4.499 1.928 21.666 24.761" class="Icon_metro-switch" width="22"  height="25" ><path _ngcontent-xat-c19="" id="Icon_metro-switch" d="M 18.42707824707031 5.472700119018555 L 18.42707824707031 8.760320663452148 C 19.30258178710938 9.14247989654541 20.10766792297363 9.689070701599121 20.80345726013184 10.38481044769287 C 22.2650146484375 11.8463191986084 23.06986045837402 13.78951644897461 23.06986045837402 15.85637664794922 C 23.06986045837402 17.92323684692383 22.26496696472168 19.86643409729004 20.80345726013184 21.32794380187988 C 19.34194755554199 22.78945350646973 17.39882469177246 23.59434509277344 15.33189010620117 23.59434509277344 C 13.2649564743042 23.59434509277344 11.32185745239258 22.78945159912109 9.860348701477051 21.32794380187988 C 8.398838996887207 19.86643600463867 7.59392261505127 17.92323684692383 7.59392261505127 15.85637664794922 C 7.59392261505127 13.78951644897461 8.398816108703613 11.8463191986084 9.860324859619141 10.38481044769287 C 10.55611324310303 9.689022064208984 11.3612003326416 9.142431259155273 12.23670387268066 8.760272979736328 L 12.23670387268066 5.472700119018555 C 7.762030124664307 6.804597854614258 4.498735427856445 10.94905376434326 4.498735427856445 15.85637664794922 C 4.498735427856445 21.83937454223633 9.348941802978516 26.68953323364258 15.33189010620117 26.68953323364258 C 21.31488800048828 26.68953323364258 26.16504669189453 21.83937454223633 26.16504669189453 15.85637664794922 C 26.16504669189453 10.94905376434326 22.90180015563965 6.804597854614258 18.42707824707031 5.472699642181396 Z M 13.78429698944092 1.928033471107483 L 16.87948608398438 1.928033471107483 L 16.87948608398438 14.30878257751465 L 13.78429698944092 14.30878257751465 L 13.78429698944092 1.928033471107483 Z" fill="#2588DF"></path></svg>